Coordinates
version=1
nRows=12
nColumns=42
inDegrees=yes

Units are S.I. units (second, meters, Newtons, ...)
If the header above contains a line with 'inDegrees', this indicates whether rotational values are in degrees (yes) or radians (no).

endheader
time	pelvis_tilt	pelvis_list	pelvis_rotation	pelvis_tx	pelvis_ty	pelvis_tz	hip_flexion_r	hip_adduction_r	hip_rotation_r	knee_angle_r	knee_adduction_r	knee_angle_r_beta	ankle_angle_r	subtalar_angle_r	mtp_angle_r	hip_flexion_l	hip_adduction_l	hip_rotation_l	knee_angle_l	knee_adduction_l	knee_angle_l_beta	ankle_angle_l	subtalar_angle_l	mtp_angle_l	lumbar_extension	lumbar_bending	lumbar_rotation	arm_flex_r	arm_add_r	arm_rot_r	elbow_flex_r	pro_sup_r	wrist_flex_r	wrist_dev_r	arm_flex_l	arm_add_l	arm_rot_l	elbow_flex_l	pro_sup_l	wrist_flex_l	wrist_dev_l
      0.00000000	     11.04785693	      5.45604665	     -1.64557669	     -1.11247060	      0.88933111	     -0.32815478	     -3.28915391	     -8.75151970	      0.31435321	     71.86246134	      0.47026436	      1.25423656	     10.91428654	    -16.36924101	     -9.61540164	     -6.81885529	      6.78507613	     -9.59187082	     15.43624048	      4.73340727	      0.26941322	     16.09734476	     -7.70084265	     -9.61540164	    -21.90980157	     -8.85872336	     -1.80805255	     -5.57338604	     -2.41503189	    -20.70873821	     37.64620193	     90.00000001	      0.00000000	      0.00000000	     -2.46969877	     -5.60363274	    -22.99704223	     36.16046557	     90.00000001	      0.00000000	      0.00000000
      0.01000000	     10.94184351	      5.08771426	     -1.53448658	     -1.10237898	      0.89019619	     -0.32908559	     -1.49031597	     -8.27743396	      0.46697663	     71.70292965	      0.35804605	      1.25145221	     11.96349838	    -16.57370513	     -9.57879056	     -7.88457586	      6.47108564	     -9.61071566	     14.57618929	      4.78664856	      0.25440250	     16.29126165	     -7.35714035	     -9.57879056	    -21.86989934	     -8.37137750	     -2.13434051	     -5.77518344	     -2.49100537	    -20.86754148	     37.52428492	     90.00000001	      0.00000000	      0.00000000	     -2.07643847	     -5.53115961	    -22.67956191	     36.53660729	     90.00000001	      0.00000000	      0.00000000
      0.02000000	     11.17435960	      4.55759673	     -1.35351697	     -1.09207516	      0.89141845	     -0.32983989	     -0.28159290	     -7.59136563	      1.03509649	     71.00967638	      0.76240747	      1.23935265	     12.56863125	    -16.97465847	     -9.48227147	     -9.65060214	      5.91777378	     -8.93740754	     13.04953962	      5.16054491	      0.22775743	     16.26211935	     -7.43290351	     -9.48227147	    -22.18371294	     -7.70853804	     -2.47760289	     -5.86317984	     -2.44469820	    -21.65529433	     37.33349151	     90.00000001	      0.00000000	      0.00000000	     -1.79848733	     -5.64735127	    -21.47720875	     37.05921972	     90.00000001	      0.00000000	      0.00000000
      0.03000000	     10.90596130	      4.32228592	     -1.12000897	     -1.08203979	      0.89167547	     -0.33086887	      1.55701939	     -7.31061016	      1.02082937	     70.27448648	      0.70464602	      1.22652117	     13.32509637	    -16.92354482	     -9.45484548	    -10.44174499	      5.74344409	     -9.21993893	     12.37461992	      5.05520782	      0.21597786	     16.37714091	     -7.11747363	     -9.45484548	    -21.97621658	     -7.33131010	     -2.99510196	     -6.08938064	     -2.47958043	    -21.78713110	     37.29637730	     90.00000001	      0.00000000	      0.00000000	     -1.46621288	     -5.63800896	    -21.18966724	     37.45073272	     90.00000001	      0.00000000	      0.00000000
      0.04000000	     11.06682811	      3.83544921	     -0.87967495	     -1.07179523	      0.89242777	     -0.33146027	      2.69123074	     -6.58930044	      1.57726021	     68.99806222	      1.03281739	      1.20424336	     13.71828980	    -17.28574457	     -9.37456753	    -12.20015730	      5.20301435	     -8.46125530	     10.67424441	      5.37223878	      0.18630071	     16.40761495	     -6.61032461	     -9.37456753	    -22.21170513	     -6.72359851	     -3.33614074	     -6.14279235	     -2.39839704	    -22.67454991	     37.00019082	     90.00000001	      0.00000000	      0.00000000	     -1.20436558	     -5.84074106	    -19.76104069	     38.16897577	     90.00000001	      0.00000000	      0.00000000
      0.05000000	     10.87931736	      3.54542019	     -0.68272975	     -1.06190763	      0.89246498	     -0.33196175	      4.29025257	     -6.21786051	      1.67815086	     67.66103524	      1.13785237	      1.18090784	     14.09712388	    -17.24257182	     -9.31853297	    -13.29312602	      4.85614562	     -8.29294252	      9.53968400	      5.54639698	      0.16649890	     16.43193184	     -5.96861261	     -9.31853297	    -22.10621702	     -6.35379771	     -3.76106089	     -6.20146955	     -2.31821095	    -23.12387008	     36.84941799	     90.00000001	      0.00000000	      0.00000000	     -0.87174421	     -6.00894492	    -19.02979963	     38.73538671	     90.00000001	      0.00000000	      0.00000000
      0.06000000	     10.96129114	      3.19398578	     -0.40236466	     -1.05174613	      0.89262592	     -0.33250738	      5.38889284	     -5.73878186	      1.72864366	     65.90544556	      1.22863976	      1.15026702	     14.34475823	    -17.28812492	     -9.22450551	    -14.75322932	      4.43727345	     -8.18434985	      8.29141578	      5.64974791	      0.14471250	     16.38143534	     -5.33240841	     -9.22450551	    -22.26638368	     -5.88782601	     -4.20484235	     -6.24041397	     -2.18709005	    -23.96965418	     36.68927304	     90.00000001	      0.00000000	      0.00000000	     -0.53961691	     -6.21987794	    -17.97074187	     39.31291930	     90.00000001	      0.00000000	      0.00000000
      0.07000000	     10.71636857	      3.01733956	     -0.20430142	     -1.04177523	      0.89212381	     -0.33303872	      6.90259114	     -5.49593754	      1.85122228	     64.12427440	      1.35046860	      1.11917972	     14.50851835	    -17.20231981	     -9.18050113	    -15.78609788	      4.22853249	     -8.31596291	      7.15244500	      5.71182681	      0.12483371	     16.47558308	     -4.28545136	     -9.18050113	    -22.08295156	     -5.63890550	     -4.63831645	     -6.30131996	     -2.13874526	    -24.30686179	     36.44777424	     90.00000001	      0.00000000	      0.00000000	     -0.13570321	     -6.31023735	    -17.51679014	     39.80346688	     90.00000001	      0.00000000	      0.00000000
      0.08000000	     10.89533131	      2.66587856	      0.08971599	     -1.03149575	      0.89195159	     -0.33345244	      7.70877778	     -5.01391955	      1.80157896	     61.87784839	      1.39155318	      1.07997219	     14.45147346	    -17.10846171	     -9.09184888	    -17.33133641	      3.72661102	     -8.74465449	      5.99486871	      5.89776669	      0.10463020	     16.57479832	     -3.01820125	     -9.09184888	    -22.33207872	     -5.17945464	     -5.05203732	     -6.32506069	     -1.98312458	    -25.24680258	     36.27749654	     90.00000001	      0.00000000	      0.00000000	      0.26352817	     -6.48218509	    -16.64971805	     40.34738046	     90.00000001	      0.00000000	      0.00000000
      0.09000000	     10.47500513	      2.80597963	      0.31841570	     -1.02163764	      0.89074840	     -0.33410838	      9.34099434	     -5.21024731	      1.61731127	     59.83619350	      1.36292858	      1.04433859	     14.38203595	    -16.68872290	     -9.06940793	    -17.91195441	      3.82028369	     -9.50773195	      5.46231690	      5.97357795	      0.09533541	     16.71334574	     -2.49652673	     -9.06940793	    -21.97906530	     -5.25001645	     -5.59448818	     -6.47690840	     -1.92414242	    -25.34697406	     36.22596628	     90.00000001	      0.00000000	      0.00000000	      0.72649049	     -6.55363212	    -16.43999868	     40.75273763	     90.00000001	      0.00000000	      0.00000000
      0.10000000	     10.73150929	      2.47530524	      0.45431861	     -1.01120851	      0.89021401	     -0.33426648	      9.90568277	     -4.76511612	      1.83951366	     57.22419421	      1.62795578	      0.99875060	     14.24388072	    -16.66831566	     -9.02553339	    -19.81388841	      3.37912006	     -9.93255190	      3.70704996	      6.24222270	      0.06470023	     16.71071964	     -0.18422652	     -9.02553339	    -22.28342335	     -4.88042690	     -5.85018210	     -6.36246121	     -1.82171020	    -26.13614967	     35.69796759	     90.00000001	      0.00000000	      0.00000000	      1.08485875	     -6.72169456	    -15.61766141	     41.43675272	     90.00000001	      0.00000000	      0.00000000
      0.11000000	     10.31565050	      2.74047294	      0.67025359	     -1.00128653	      0.88860524	     -0.33480999	     11.40387581	     -5.14121038	      1.40549559	     54.92506042	      1.53237430	      0.95862315	     14.00162066	    -16.19997557	     -9.00691332	    -20.34046232	      3.54587602	    -10.98595104	      3.37201087	      6.47055427	      0.05885269	     16.90782084	      0.16320207	     -9.00691332	    -21.93780496	     -5.10557424	     -6.34271516	     -6.54789992	     -1.73593430	    -26.27512354	     35.72057580	     90.00000001	      0.00000000	      0.00000000	      1.56367343	     -6.82034621	    -15.39114143	     41.85889944	     90.00000001	      0.00000000	      0.00000000
